<?xml version="1.0" encoding="utf-8"?>
<!-- Generator: Adobe Illustrator 23.0.1, SVG Export Plug-In . SVG Version: 6.00 Build 0)  -->
<svg version="1.1" id="Layer_1" xmlns="http://www.w3.org/2000/svg" xmlns:xlink="http://www.w3.org/1999/xlink" x="0px" y="0px"
	 viewBox="0 0 600 600" style="enable-background:new 0 0 600 600;" xml:space="preserve">
<style type="text/css">
	.st0{fill:none;}
	.st1{fill:#808080;}
</style>
<g>
</g>
<g>
	<rect x="80.89" y="91.99" class="st0" width="344.97" height="282.55"/>
	<path class="st1" d="M202.03,103.71h18.16v149.85c0,10.74-1.64,20.24-4.91,28.49c-3.27,8.25-7.76,15.19-13.48,20.8
		c-5.71,5.62-12.52,9.86-20.43,12.74s-16.46,4.32-25.63,4.32c-9.67,0-18.46-1.25-26.37-3.74c-7.91-2.49-14.67-6.3-20.29-11.43
		c-5.62-5.13-9.99-11.55-13.11-19.26c-3.13-7.71-4.69-16.8-4.69-27.25h18.02c0,15.43,4.05,27.03,12.16,34.79
		c8.1,7.76,19.53,11.65,34.28,11.65c6.45,0,12.47-1.1,18.09-3.3c5.61-2.2,10.52-5.44,14.72-9.74c4.2-4.3,7.49-9.62,9.89-15.97
		c2.39-6.35,3.59-13.72,3.59-22.12V103.71z"/>
</g>
<polygon class="st1" points="549.21,103.68 549.21,121.68 529.37,121.68 220.21,121.68 220.21,103.68 "/>
<path d="M355.47,116.49"/>
<polyline class="st1" points="531.81,121.68 521.64,139.98 540.02,139.98 549.21,121.68 558.36,103.68 549.21,103.68 "/>
<polyline class="st1" points="235.54,139.98 329.5,320.23 339.31,302.9 253.92,139.98 "/>
<polyline class="st1" points="539.81,139.98 445.85,320.23 436.04,302.9 521.42,139.98 "/>
<path d="M75.3,367.21"/>
<path d="M323.47,399.89"/>
<polyline class="st1" points="330.36,285.83 388.1,189.19 397.63,205.3 339.31,302.9 "/>
<polyline class="st1" points="445.09,285.62 397.63,205.3 388,221.41 436.04,302.9 "/>
<polygon class="st0" points="334.03,279.7 321.43,300 332.55,314.84 347.4,289.35 "/>
<polygon class="st0" points="443.11,282.26 454.19,300 442.8,314.84 430.36,293.28 "/>
<g>
</g>
<g>
</g>
<g>
</g>
<g>
</g>
<g>
</g>
</svg>
